# xmcd
#
# Track frame offsets: 
#        150
#        13907
#        27647
#        40102
#        57367
#        80952
#        96157
#        115435
#        131705
#        147035
#        163215
#        176025
#        190135
#        200965
#
# Disc length: 2962 seconds
#
# Revision: 0
# Processed by: cddbd v1.5PL3 Copyright (c) Steve Scherf et al.
# Submitted via: ExactAudioCopy v0.95a3
#
DISCID=d80b900e
DTITLE=Jim Christopher and Brown Burnett - Mainliners
DYEAR=1900
DGENRE=Blues
TTITLE0=Baby Please Don't Go
TTITLE1=Big Mama Boogie
TTITLE2=I'm a King Bee
TTITLE3=Hot Mustard Slinger
TTITLE4=Hey Baby Do You Want To Go
TTITLE5=Prodigal Son
TTITLE6=Lights In Arizona
TTITLE7=I'm So Glad
TTITLE8=I'm Not coming Home Baby
TTITLE9=It Takes A Lot To Laugh
TTITLE10=Three Wheel Ride
TTITLE11=I Got A New Knee
TTITLE12=Dimples
TTITLE13=(Amazing Grace) Going Down
EXTD=
EXTT0=
EXTT1=
EXTT2=
EXTT3=
EXTT4=
EXTT5=
EXTT6=
EXTT7=
EXTT8=
EXTT9=
EXTT10=
EXTT11=
EXTT12=
EXTT13=
PLAYORDER=
